<?xml version="1.0" encoding="UTF-8"?>
<!-- Created with Inkscape (http://www.inkscape.org/) -->
<svg width="36.663509mm" height="7.8908548mm" version="1.1" viewBox="0 0 36.663509 7.8908548" xmlns="http://www.w3.org/2000/svg">
 <g transform="translate(-55.562498,-76.464583)">
  <g transform="matrix(.75 0 0 .75 -48.552973 -15.78369)" fill="#800000" stroke-linecap="square" stroke-width="1.33333">
   <path d="m166.33669 133.00589-0.0466-0.031q0.0194-0.0737 0.0543-0.13194 0.031-0.0543 0.10477-0.11253 0.0737-0.0543 0.20179-0.12806 0.17851-0.1009 0.2988-0.16686 0.1203-0.066 0.19403-0.10866 0.10866-0.0621 0.14358-0.0854 0.0388-0.0233 0.0504-0.0311l0.0505 0.0272q-0.0349 0.10477-0.0893 0.17074-0.0543 0.0698-0.14358 0.1203l-0.59372 0.32597q-0.0815 0.0427-0.13582 0.0776-0.0582 0.0388-0.0893 0.0737z" direction="rtl" style="paint-order:fill markers stroke"/>
   <path d="m166.37549 132.60619-0.0466-0.031q0.0194-0.0737 0.0543-0.13194 0.0311-0.0543 0.10478-0.11254 0.0737-0.0543 0.2018-0.12806 0.17849-0.10089 0.29879-0.16686 0.1203-0.066 0.19403-0.10866 0.10865-0.0621 0.14358-0.0854 0.0388-0.0233 0.0504-0.031l0.0504 0.0272q-0.0349 0.10477-0.0892 0.17074-0.0543 0.0699-0.14358 0.1203l-0.59373 0.32597q-0.0815 0.0427-0.13581 0.0776-0.0582 0.0388-0.0892 0.0737z" direction="rtl" style="paint-order:fill markers stroke"/>
  </g>
  <path d="m75.720878 83.337753-0.0621-0.0388q0.0272-0.0776 0.066-0.15911 0.0388-0.0815 0.0854-0.16686 0.097-0.17462 0.28716-0.32984-0.14746-0.0388-0.23283-0.11641-0.0854-0.0776-0.1203-0.17075-0.031-0.097-0.031-0.18628 0-0.34537 0.39194-0.70238 0.38805-0.35313 0.7179-0.35313 0.0815 0 0.15522 0.0272 0.0737 0.0272 0.1203 0.0815 0.0466 0.0504 0.0466 0.13195 0 0.0931-0.0466 0.16685-0.0427 0.0737-0.13582 0.10867h-0.0272q-0.0388-0.0505-0.12806-0.10867-0.0893-0.0582-0.20567-0.0582-0.15523 0-0.26388 0.0815-0.10478 0.0776-0.10478 0.21344 0 0.12417 0.0776 0.20566 0.0776 0.0815 0.19014 0.1203 0.11642 0.0388 0.22119 0.0388 0.0776 0 0.13582-8e-3 0.0582-0.0117 0.14358-0.0737 0.13582-0.0931 0.18627-0.12806 0.0504-0.0349 0.0699-0.0504 0.0233-0.0155 0.0582-0.0427l0.17463-0.13193 0.0582 0.0427q-0.0155 0.0427-0.0388 0.1009t-0.066 0.13192q-0.0388 0.0737-0.10478 0.1397-0.066 0.066-0.15522 0.13195l-0.79163 0.54327q-0.18239 0.12418-0.35313 0.26001-0.16687 0.13582-0.31821 0.2988z" direction="rtl" fill="#000000" stroke-linecap="square" style="paint-order:fill markers stroke"/>
  <path d="m79.264968 81.128933q-0.0698 0-0.0698-0.0776 0-0.0388 0.0698-0.13194 0.0272-0.0349 0.0621-0.0776 0.0349-0.0466 0.0815-0.10089 0.0892-0.11254 0.15134-0.19403 0.0621-0.0815 0.0892-0.13194 0.0582-0.1009 0.15911-0.1009 0.0388 0 0.0854 0.0194 0.0504 0.0194 0.11253 0.0621 0.12418 0.0815 0.26388 0.0815 0.11254 0 0.21731-0.0582 0.10866-0.0582 0.22119-0.23673l0.0543-0.0116q0.0776 0.0582 0.12806 0.0815 0.0543 0.0233 0.11254 0.0233 0.12417 0 0.20955-0.10867 0.0892-0.11252 0.15134-0.29491l0.13581 0.0233q-0.10866 0.49283-0.27164 0.76835-0.1591 0.27552-0.3997 0.27552-0.0737 0-0.14357-0.0194-0.066-0.0155-0.1203-0.0504-0.0815 0.13195-0.18626 0.21344-0.10478 0.0854-0.24061 0.0854-0.22895 0-0.37252-0.12418-0.14358-0.1203-0.19403-0.1203-0.0543 0-0.13194 0.1009-0.0815 0.10477-0.17462 0.10477zm-0.0815 1.83164q-0.14747 0-0.2794-8e-3 -0.13194-4e-3 -0.24836-0.0194-0.11642-0.0116-0.21731-0.0349-0.097-0.0194-0.17851-0.0466-0.16686-0.0543-0.25223-0.16298-0.0815-0.10865-0.0815-0.27552 0-0.23283 0.066-0.43462 0.0699-0.20567 0.26388-0.4191 0.0699-0.0776 0.16299-0.14746 0.0931-0.0737 0.25611-0.17075 0.16299-0.10089 0.43463-0.25999 0.097-0.0543 0.1591-0.1009 0.0621-0.0504 0.0931-0.0893 0.066-0.0776 0.097-0.0776 0.0504 0 0.0504 0.0699 0 0.10089-0.0582 0.21731-0.0543 0.11642-0.15522 0.22895-0.097 0.10866-0.23671 0.20955-0.13582 0.097-0.30269 0.16299-0.0815 0.031-0.14746 0.0621-0.0621 0.0272-0.11641 0.0543-0.10866 0.0504-0.16299 0.0931-0.0504 0.0427-0.0504 0.0854 0 0.0582 0.097 0.10865 0.097 0.0466 0.31044 0.0776 0.0427 4e-3 0.0893 8e-3t0.097 8e-3 0.10866 8e-3q0.0582 0 0.12029 4e-3 0.0621 0 0.12806 0 0.36866 0 1.00895-0.0194 0.64417-0.0233 1.66088-0.0699 0.2794-0.0155 0.5782-0.0233 0.2988-0.0116 0.5782-0.0194 0.27941-0.0116 0.49672-0.0116l0.0116 0.13195q-0.45015 0.17074-0.98178 0.32208-0.53164 0.14747-1.0788 0.25999-0.62089 0.13195-1.22238 0.20567-0.60148 0.0737-1.09819 0.0737z" direction="rtl" fill="#000000" stroke-linecap="square" style="paint-order:fill markers stroke"/>
  <g transform="matrix(.75 0 0 .75 -45.778679 -16.67908)" fill="#800000" stroke-linecap="square" stroke-width="1.33333">
   <path d="m177.16363 125.85069-0.031-0.0427q0.0892-0.0815 0.17851-0.15522 0.0854-0.0776 0.17074-0.14358l0.19403-0.15134q-0.0504-0.0621-0.066-0.10866-0.0194-0.0466-0.0194-0.0815 0-0.0854 0.0388-0.17074 0.0427-0.0854 0.11642-0.14359 0.0776-0.0582 0.17463-0.0582 0.0931 0 0.13193 0.0621 0.0388 0.0621 0.0388 0.13581 0 0.15523-0.0931 0.28717-0.0893 0.12805-0.23284 0.23671-0.14358 0.10478-0.30268 0.19015-0.16298 0.0815-0.2988 0.14358zm0.69074-0.63253q0.0349-0.031 0.0621-0.0699 0.031-0.0388 0.031-0.0893 0-0.0388-0.0272-0.0699-0.0233-0.031-0.0776-0.031t-0.0815 0.031q-0.0272 0.0311-0.0272 0.0737 0 0.0349 0.0272 0.0699 0.031 0.0349 0.0931 0.0854z" direction="rtl" style="paint-order:fill markers stroke"/>
   <path d="m177.28392 126.42501q-0.0854 0-0.1397-0.0582-0.0582-0.0582-0.0582-0.15522 0-0.0892 0.0388-0.19015l0.0892-0.0155 4e-3 0.0466q8e-3 0.0582 0.0388 0.0892 0.0272 0.0272 0.0815 0.0272 0.1009 0 0.1591-0.0815 0.0543-0.0815 0.0893-0.24059l0.0892-0.0194q0.0349 0.0776 0.12418 0.0776 0.0893 0 0.1397-0.0737 0.0505-0.0776 0.066-0.22119l0.10477-0.0194v0.066q0 0.12806-0.0427 0.24447-0.0427 0.11642-0.12807 0.19403-0.0815 0.0737-0.20955 0.0737-0.0815 0-0.12806-0.0388-0.0349 0.11253-0.11254 0.20567-0.0815 0.0893-0.20567 0.0893z" direction="rtl" style="paint-order:fill markers stroke"/>
  </g>
  <g stroke-linecap="square">
   <path d="m88.779618 77.256133-0.0232-0.032q0.067-0.0611 0.13388-0.11642 0.064-0.0582 0.12805-0.10768l0.14553-0.11351q-0.0379-0.0466-0.0495-0.0815-0.0145-0.0349-0.0145-0.0611 0-0.0641 0.0291-0.12806 0.032-0.064 0.0873-0.10768 0.0582-0.0436 0.13097-0.0436 0.0698 0 0.099 0.0466 0.0291 0.0466 0.0291 0.10187 0 0.11641-0.0698 0.21537-0.067 0.096-0.17463 0.17753-0.10769 0.0786-0.22701 0.14261-0.12224 0.0611-0.2241 0.10769zm0.51806-0.4744q0.0262-0.0232 0.0466-0.0524 0.0233-0.0291 0.0233-0.067 0-0.0291-0.0204-0.0524-0.0175-0.0233-0.0582-0.0233t-0.0611 0.0233-0.0204 0.0553q0 0.0262 0.0204 0.0524 0.0233 0.0262 0.0698 0.064z" direction="rtl" fill="#800000" stroke-width=".999997" style="paint-order:fill markers stroke"/>
   <path d="m87.693538 81.516993q-0.0737 0-0.12418-0.0893-0.0504-0.0893-0.0504-0.3027 0-0.16685 0.0466-0.27552 0.0466-0.10864 0.12806-0.16298 0.0815-0.0543 0.19015-0.0543 0.2018 0 0.31432-0.0427 0.11254-0.0427 0.15911-0.10479 0.0504-0.066 0.0504-0.1203 0-0.0776-0.0737-0.15134-0.0737-0.0776-0.19402-0.12418-0.11642-0.0504-0.24836-0.0504-0.20179 0-0.33761 0.0776t-0.17074 0.22506q-0.0155 0.066-0.0388 0.1009t-0.0543 0.0349q-0.10089 0-0.10089-0.10867 0-0.12416 0.0466-0.27552 0.0466-0.15521 0.11641-0.30655 0.0699-0.15523 0.14358-0.28329 0.0699-0.13194 0.11642-0.20567 0.0505-0.0776 0.15134-0.20179 0.1009-0.12806 0.22507-0.27164 0.12806-0.14746 0.25225-0.28716 0.12806-0.14358 0.23282-0.26 0.10478-0.11641 0.15911-0.18238 0.13583-0.15911 0.27553-0.3182 0.1397-0.1591 0.27164-0.3221 0.0388-0.0504 0.0737-0.10477 0.0349-0.0582 0.0737-0.10866l0.0388 0.0155q4e-3 0.0155 4e-3 0.0272 0 8e-3 0 0.0233 0 0.12418-0.0427 0.2406-0.0388 0.11641-0.1203 0.22508-0.0699 0.0931-0.18627 0.23283-0.11253 0.13582-0.24447 0.28716-0.12806 0.15134-0.25224 0.29104-0.1203 0.1397-0.20955 0.23672l-0.45014 0.49283 0.0116 0.0155q0.0388-0.0233 0.0931-0.0349 0.0582-0.0116 0.13582-0.0116 0.20179 0 0.32985 0.10478 0.13194 0.10089 0.19403 0.28328 0.066 0.18239 0.066 0.42687 0 0.10865-0.0272 0.26386-0.0272 0.15524-0.0854 0.32598-0.0543 0.17074-0.14746 0.33373-0.0893 0.1591-0.21731 0.27939-0.11642 0.10866-0.24836 0.16298-0.12807 0.0543-0.27552 0.0543zm-2.32445 2.59222q-0.31045 0-0.51224-0.097-0.20179-0.0931-0.3182-0.24835-0.11642-0.15522-0.16687-0.34925-0.0466-0.19015-0.0466-0.3803 0-0.4191 0.11641-0.82656 0.1203-0.41134 0.32209-0.78775l0.12806 0.0466q-0.097 0.22119-0.16299 0.4579-0.0621 0.23284-0.0621 0.48507 0 0.23284 0.0699 0.38418 0.0737 0.15134 0.1979 0.24059 0.12418 0.0893 0.28328 0.12418 0.16299 0.0388 0.34537 0.0388 0.35314 0 0.60537-0.1009 0.25612-0.10089 0.4191-0.25224 0.16299-0.15134 0.24836-0.2988 0.0854-0.14746 0.13194-0.3997 0.0504-0.25611 0.066-0.62089 0.031-0.67909 0.0466-1.09819 0.0194-0.42298 0.0272-0.62865 0.0116-0.20955 0.0155-0.24448l0.0233-0.27552q8e-3 -0.066 0.0233-0.15522 0.0155-0.0892 0.0466-0.20567 0.0349-0.11642 0.0854-0.26776 0.0543-0.15134 0.13583-0.34925l0.10476 0.0233q-0.0272 0.11642-0.0504 0.31045-0.0194 0.19014-0.0388 0.41523-0.0194 0.22118-0.031 0.43461t-0.0194 0.37253q-8e-3 0.15523-8e-3 0.21343 0 0.19403 0.0543 0.31821t0.16298 0.18627q0.11255 0.0582 0.27165 0.0582 0.0931 0 0.13194 0.10089 0.0388 0.097 0.0388 0.27552 0 0.15134-0.0427 0.26776-0.0388 0.11253-0.1203 0.1785-0.0776 0.0621-0.19791 0.0621-0.12418 0-0.21731-0.0504-0.0931-0.0543-0.15134-0.15523l-4e-3 0.0427q-0.0311 0.33761-0.097 0.65581-0.0621 0.31821-0.16298 0.60537-0.097 0.28328-0.23283 0.52776-0.16299 0.29492-0.3803 0.51223t-0.48508 0.33373q-0.26775 0.1203-0.59371 0.1203z" direction="rtl" fill="#000000" style="paint-order:fill markers stroke"/>
   <path d="m89.637698 82.898473q-0.0776-0.0349-0.1591-0.0699-0.0815-0.0349-0.1591-0.0698-0.0815-0.031-0.16299-0.066l0.0194-0.0737q0.12416-0.0116 0.23283-0.031 0.10477-0.0233 0.19791-0.0582 0.0931-0.0349 0.16686-0.0815 0.15521-0.0931 0.23284-0.17463 0.0737-0.0854 0.10089-0.20179 0.0272-0.11641 0.0349-0.31432l0.0543-1.31163q8e-3 -0.22507 0.0233-0.38418 0.0194-0.1591 0.0504-0.2988 0.0349-0.1397 0.097-0.29492 0.066-0.15911 0.16687-0.3803l0.0931 0.0349q-0.0233 0.066-0.0427 0.18626-0.0194 0.11642-0.0388 0.28717-0.0155 0.16686-0.0272 0.38805-0.0116 0.21731-0.0233 0.48507-0.0194 0.5394-0.0621 0.91581-0.0427 0.37642-0.10866 0.58597-0.0621 0.21343-0.13194 0.36089-0.0698 0.14746-0.13582 0.2406-0.0582 0.0815-0.13582 0.15522-0.0815 0.0737-0.15522 0.1203-0.0737 0.0504-0.12806 0.0504zm-0.34149-0.24447-0.10088-0.0233q0.0155-0.0737 0.0427-0.2794 0.0272-0.20955 0.0427-0.60148l0.0504-1.11372q0.0116-0.22896 0.0272-0.38806 0.0194-0.16298 0.0543-0.29492 0.0349-0.13582 0.0931-0.2794 0.0621-0.14746 0.15522-0.34537l0.097 0.031q-0.0272 0.0893-0.0582 0.28716-0.031 0.19403-0.0504 0.56657l-0.0621 1.15252q-0.0155 0.33373-0.0931 0.66746-0.0737 0.33373-0.19791 0.62089z" direction="rtl" fill="#000000" style="paint-order:fill markers stroke"/>
   <path d="m91.334938 77.909563-0.0349-0.0233q0.0145-0.0553 0.0407-0.096 0.0232-0.0436 0.0786-0.0844 0.0553-0.0437 0.15135-0.099 0.13386-0.0757 0.22409-0.12514 0.0902-0.0495 0.14552-0.0815 0.0815-0.0466 0.10769-0.0641 0.0291-0.0175 0.0378-0.0232l0.0378 0.0204q-0.0262 0.0786-0.0669 0.13097-0.0407 0.0495-0.10769 0.0873l-0.4453 0.24448q-0.0611 0.032-0.10185 0.0611-0.0437 0.0262-0.0669 0.0524z" direction="rtl" fill="#800000" stroke-width=".999997" style="paint-order:fill markers stroke"/>
   <path d="m91.248128 78.874343-0.0466-0.0427q0.031-0.10477 0.1009-0.1785 0.066-0.0737 0.13581-0.11253l4e-3 -0.0155q-0.0233-0.0155-0.0543-0.0504-0.0388-0.0504-0.0388-0.12418 0-0.0776 0.0543-0.16687 0.0543-0.0931 0.1397-0.17462 0.0815-0.0854 0.17462-0.1397 0.0931-0.0543 0.17075-0.0543 0.0737 0 0.12417 0.031 0.0504 0.0272 0.0504 0.0931 0 0.0543-0.0233 0.0854-0.0233 0.031-0.0466 0.0504h-0.031q-0.0233-0.0349-0.066-0.0543-0.0388-0.0194-0.0815-0.0194-0.0854 0-0.14358 0.0505-0.0582 0.0466-0.0582 0.1203 0 0.0698 0.0621 0.11253 0.066 0.0427 0.16686 0.0427 0.0621 0 0.15522-0.0505 0.097-0.0543 0.17463-0.12806l0.0543 0.0349q-0.0388 0.11642-0.1009 0.18627-0.0621 0.066-0.16686 0.12417-0.10478 0.0543-0.2794 0.13581-0.13194 0.0621-0.2406 0.12418-0.10865 0.0582-0.19014 0.12031z" direction="rtl" fill="#000000" style="paint-order:fill markers stroke"/>
   <path d="m91.314128 82.277583-0.10089-0.0233q0.0155-0.0737 0.0427-0.2794 0.0272-0.20955 0.0427-0.60149l0.0505-1.11372q0.0116-0.21731 0.0272-0.37641 0.0194-0.15911 0.0543-0.29881t0.0931-0.28716q0.0621-0.15134 0.15522-0.34537l0.097 0.031q-0.0272 0.0893-0.0582 0.28716-0.0311 0.19403-0.0505 0.56656l-0.0621 1.15253q-0.0155 0.33373-0.0931 0.66745-0.0737 0.33373-0.19791 0.62089z" direction="rtl" fill="#000000" style="paint-order:fill markers stroke"/>
  </g>
  <g>
   <path d="m79.518138 83.814123c-0.0138 0.0181-0.0124 0.0292-6e-3 0.0486 7e-3 0.0221 0.0187 0.0567 0.0527 0.1244 0.0372 0.0738 0.0898 0.16162 0.16128 0.22184 0.0685 0.0577 0.15608 0.10515 0.23974 0.12974 0.0418 0.0123 0.0825 0.018 0.12061 0.0165 0.038-2e-3 0.0772-0.0114 0.10451-0.0402 0.14418-0.14645 0.26291-0.26832 0.3829-0.39117 5e-4 1e-3 7.5e-4 1e-3 1e-3 3e-3 0.0372 0.0738 0.0898 0.16163 0.16128 0.22185 0.0685 0.0577 0.15609 0.10515 0.23973 0.12973 0.0418 0.0123 0.0826 0.018 0.12061 0.0165 0.038-2e-3 0.0772-0.0115 0.10452-0.0402 0.19478-0.19783 0.34169-0.34949 0.51044-0.52159 0.0228-0.026 8e-3 -0.0669-0.0256-0.073 0 0-0.19232-0.037-0.32739-0.14678-0.0658-0.0536-0.11757-0.13814-0.14191-0.18598-0.0244-0.0478-0.03-0.0672-0.0349-0.10654-5e-3 -0.0392-0.0534-0.0608-0.0678-0.0457l-8e-5 1e-4c-0.0174 0.0172-0.02 0.0183-0.0275 0.0252-0.0152 0.0147-0.034 0.0322-0.061 0.0585-0.0541 0.0529-0.12794 0.12552-0.20153 0.19761-0.0665 0.0607-0.17676 0.17271-0.24078 0.23879-0.0676-0.0222-0.15958-0.0601-0.2348-0.12124-0.0657-0.0536-0.11757-0.13815-0.14191-0.18598-0.0244-0.0478-0.03-0.0672-0.0349-0.10654-5e-3 -0.0392-0.0534-0.0608-0.0678-0.0457l-8e-5 1e-4c-0.0174 0.0173-0.02 0.0183-0.0275 0.0252-0.0152 0.0147-0.0339 0.0322-0.061 0.0585-0.0541 0.0528-0.12795 0.1255-0.20153 0.19761-0.0914 0.0835-0.26785 0.26597-0.28907 0.28915-3e-3 3e-3 -5e-3 6e-3 -7e-3 8e-3z" color="#000000" fill="#000080" style="-inkscape-stroke:none;paint-order:fill markers stroke"/>
   <path d="m79.926278 77.406313-0.0349-0.0233q0.0145-0.0553 0.0407-0.096 0.0232-0.0436 0.0786-0.0844 0.0553-0.0436 0.15134-0.099 0.13389-0.0757 0.22411-0.12514 0.0902-0.0495 0.14552-0.0815 0.0815-0.0466 0.10768-0.0641 0.0291-0.0175 0.0378-0.0233l0.0379 0.0204q-0.0262 0.0786-0.0669 0.13096-0.0407 0.0495-0.10768 0.0873l-0.4453 0.24448q-0.0611 0.032-0.10187 0.0611-0.0437 0.0262-0.0669 0.0524z" direction="rtl" fill="#800000" stroke-linecap="square" stroke-width=".999997" style="paint-order:fill markers stroke"/>
   <path d="m79.327118 79.039283c-0.0138 0.0181-0.0124 0.0292-6e-3 0.0486 8e-3 0.0221 0.0187 0.0567 0.0527 0.1244 0.0372 0.0738 0.0898 0.16162 0.16127 0.22184 0.0685 0.0577 0.15609 0.10515 0.23974 0.12974 0.0418 0.0123 0.0825 0.018 0.12061 0.0165 0.038-2e-3 0.0772-0.0114 0.10452-0.0402 0.14417-0.14645 0.2629-0.26832 0.3829-0.39117 4.9e-4 1e-3 7.4e-4 1e-3 1e-3 3e-3 0.0372 0.0738 0.0898 0.16163 0.16127 0.22185 0.0685 0.0577 0.15609 0.10515 0.23974 0.12973 0.0418 0.0123 0.0826 0.018 0.12061 0.0165 0.038-2e-3 0.0772-0.0115 0.10452-0.0402 0.19478-0.19783 0.34168-0.34949 0.51043-0.52159 0.0228-0.026 8e-3 -0.0669-0.0256-0.073 0 0-0.19232-0.037-0.32739-0.14678-0.0657-0.0536-0.11757-0.13814-0.14191-0.18598-0.0244-0.0478-0.03-0.0672-0.0349-0.10654-5e-3 -0.0392-0.0534-0.0608-0.0678-0.0457l-8e-5 1e-4c-0.0174 0.0172-0.02 0.0183-0.0275 0.0252-0.0152 0.0147-0.034 0.0322-0.061 0.0585-0.0541 0.0529-0.12793 0.12552-0.20153 0.19761-0.0665 0.0607-0.17675 0.17271-0.24077 0.23879-0.0676-0.0222-0.15959-0.0601-0.2348-0.12124-0.0658-0.0536-0.11758-0.13815-0.14191-0.18598-0.0244-0.0478-0.03-0.0672-0.0349-0.10654-5e-3 -0.0392-0.0534-0.0608-0.0678-0.0457l-9e-5 1e-4c-0.0174 0.0173-0.02 0.0183-0.0275 0.0252-0.0152 0.0147-0.0339 0.0322-0.061 0.0585-0.0541 0.0528-0.12795 0.1255-0.20152 0.19761-0.0914 0.0835-0.26786 0.26597-0.28907 0.28915-3e-3 3e-3 -5e-3 6e-3 -7e-3 8e-3z" color="#000000" fill="#000080" style="-inkscape-stroke:none;paint-order:fill markers stroke"/>
   <path d="m79.879968 78.021933c-0.0138 0.018-0.0124 0.0292-6e-3 0.0485 7e-3 0.0221 0.0188 0.0568 0.0528 0.12448 0.0372 0.0738 0.0897 0.16154 0.16118 0.22177 0.0685 0.0577 0.15608 0.10514 0.23974 0.12973 0.0418 0.0123 0.0825 0.018 0.12061 0.0165 0.038-2e-3 0.0773-0.0114 0.10462-0.0401 0.19477-0.19783 0.3416-0.3494 0.51035-0.52149 0.0228-0.026 8e-3 -0.0671-0.0256-0.0732 0 0-0.19233-0.037-0.32739-0.14677-0.0657-0.0536-0.11757-0.13815-0.14191-0.18598-0.0244-0.0478-0.03-0.0672-0.0349-0.10655-5e-3 -0.0392-0.0533-0.0607-0.0677-0.0456l-8e-5 1e-4c-0.0174 0.0172-0.0201 0.0182-0.0276 0.0251-0.0152 0.0147-0.034 0.0322-0.0611 0.0586-0.0541 0.0528-0.12788 0.1254-0.20145 0.19751-0.0914 0.0835-0.26785 0.26597-0.28907 0.28914-3e-3 3e-3 -5e-3 6e-3 -7e-3 8e-3z" color="#000000" fill="#000080" style="-inkscape-stroke:none;paint-order:fill markers stroke"/>
   <path d="m59.665728 82.539043-0.035-0.0233q0.0146-0.0553 0.0407-0.099 0.0232-0.0407 0.0786-0.0844 0.0553-0.0407 0.15134-0.096 0.13388-0.0757 0.2241-0.12515 0.0902-0.0495 0.14552-0.0815 0.0815-0.0466 0.10769-0.0641 0.0291-0.0175 0.0378-0.0233l0.0379 0.0204q-0.0262 0.0786-0.067 0.12806-0.0407 0.0524-0.10769 0.0902l-0.44529 0.24448q-0.0611 0.032-0.10186 0.0582-0.0436 0.0291-0.0669 0.0553z" direction="rtl" fill="#800000" stroke-linecap="square" stroke-width=".999997" style="paint-order:fill markers stroke"/>
  </g>
  <g stroke-linecap="square">
   <path d="m58.930858 81.517003q-0.0737 0-0.12418-0.0893-0.0505-0.0893-0.0505-0.30269 0-0.12029 0.031-0.20179 0.031-0.0854 0.0815-0.13971 0.0466-0.0543 0.0931-0.0854 0.0737-0.12418 0.15134-0.24447 0.0776-0.12031 0.17463-0.25225 0.0116-0.0893 0.0194-0.16298 0.0116-0.0776 0.0194-0.17463 0.0116-0.097 0.0194-0.23671 0.0116-0.1397 0.0233-0.35312 8e-3 -0.11254 0.0233-0.21344 0.0194-0.1009 0.0504-0.20567 0.0349-0.11642 0.0893-0.24835 0.0543-0.13195 0.12805-0.29105l0.097 0.031q-0.0388 0.12807-0.0621 0.31046-0.0194 0.1785-0.0272 0.41522-8e-3 0.23671-0.0504 0.45402-0.0427 0.21731-0.1203 0.4191 0.19403-0.26776 0.40746-0.41522t0.45014-0.14746q0.17463 0 0.2794 0.0893 0.10478 0.0892 0.10478 0.27163 0 0.1397-0.031 0.28328-0.031 0.14359-0.0931 0.29105-0.0582 0.14357-0.15134 0.29491-0.0931 0.14746-0.21731 0.2988-0.24836 0.3027-0.5782 0.45404-0.32597 0.15134-0.73731 0.15134zm0.3182-0.88477q0.17851-8e-3 0.38418-0.0388 0.20567-0.0349 0.38806-0.0931 0.18626-0.0582 0.30268-0.1397t0.11642-0.17851q0-0.0621-0.0776-0.10865-0.0737-0.0504-0.2212-0.0504-0.25611 0-0.43462 0.12029-0.17851 0.12031-0.33761 0.32985zm-2.64266 3.47699q-0.31044 0-0.51223-0.097-0.20179-0.0931-0.31821-0.24835-0.11641-0.15522-0.16686-0.34925-0.0466-0.19015-0.0466-0.38031 0-0.41909 0.11642-0.82656 0.1203-0.41133 0.32209-0.78774l0.12806 0.0466q-0.097 0.22119-0.16299 0.4579-0.0621 0.23284-0.0621 0.48507 0 0.23284 0.0699 0.38418 0.0737 0.15134 0.19791 0.24059 0.12418 0.0893 0.28328 0.12418 0.16299 0.0388 0.34537 0.0388 0.35313 0 0.60537-0.1009 0.25612-0.10089 0.4191-0.25223 0.16298-0.15135 0.24836-0.29881 0.0854-0.14746 0.13194-0.3997 0.0504-0.25611 0.066-0.62089 0.031-0.67909 0.0466-1.09819 0.0194-0.42298 0.0272-0.62865 0.0116-0.20954 0.0155-0.24448l0.0233-0.27552q8e-3 -0.066 0.0233-0.15522 0.0155-0.0893 0.0466-0.20567 0.0349-0.11642 0.0854-0.26775 0.0543-0.15135 0.13582-0.34926l0.10478 0.0233q-0.0272 0.11643-0.0505 0.31046-0.0194 0.19015-0.0388 0.41522-0.0194 0.22119-0.0311 0.43462-0.0116 0.21343-0.0194 0.37253-8e-3 0.15523-8e-3 0.21343 0 0.19402 0.0543 0.3182t0.16299 0.18628q0.11253 0.0582 0.27164 0.0582 0.0931 0 0.13194 0.10088 0.0388 0.097 0.0388 0.27552 0 0.15134-0.0427 0.26777-0.0388 0.11253-0.1203 0.17849-0.0776 0.0621-0.19791 0.0621-0.12418 0-0.21731-0.0504-0.0931-0.0543-0.15134-0.15524l-4e-3 0.0427q-0.031 0.33761-0.097 0.65581-0.0621 0.31821-0.16298 0.60537-0.097 0.28329-0.23283 0.52776-0.16299 0.29493-0.3803 0.51224-0.21731 0.2173-0.48507 0.33373-0.26776 0.12029-0.59373 0.12029z" direction="rtl" fill="#000000" style="paint-order:fill markers stroke"/>
   <path d="m61.942178 82.669523q-0.0737 0-0.12418-0.0893-0.0504-0.0893-0.0504-0.30269 0-0.14746 0.0427-0.25612 0.0388-0.11253 0.1203-0.17462 0.0815-0.0621 0.20178-0.0621 0.15911 0 0.28717-0.0854 0.12805-0.0893 0.20178-0.26776l0.10866 0.0233q-0.031 0.2406-0.10089 0.45791-0.066 0.21731-0.16687 0.38806-0.097 0.17073-0.22895 0.27164-0.13194 0.097-0.29104 0.097zm0 0q-0.28328 0-0.43075-0.23283-0.14746-0.23283-0.14746-0.69074 0-0.10478 4e-3 -0.23283 4e-3 -0.13195 8e-3 -0.29105 8e-3 -0.15909 0.0194-0.34537 0.0116-0.18626 0.0233-0.3997 0.0272-0.42686 0.0931-0.76446 0.0699-0.34149 0.18239-0.59373l0.10089 0.0272q-0.0233 0.11254-0.0466 0.28716-0.0194 0.17075-0.0388 0.37642-0.0194 0.20179-0.0349 0.41134-0.0116 0.20955-0.0194 0.39581-8e-3 0.18627-8e-3 0.32209 0 0.20179 0.0272 0.35701t0.0776 0.26776q0.0543 0.10866 0.14746 0.16686 0.097 0.0543 0.23283 0.0543 0.0931 0 0.13194 0.1009 0.0388 0.10089 0.0388 0.28716 0 0.1785-0.0505 0.29104-0.0504 0.10866-0.13582 0.1591-0.0815 0.0466-0.17462 0.0466z" direction="rtl" fill="#000000" style="paint-order:fill markers stroke"/>
   <path d="m63.806278 80.924753-0.0349-0.0233q0.0145-0.0553 0.0407-0.096 0.0232-0.0436 0.0786-0.0844 0.0553-0.0436 0.15134-0.099 0.13388-0.0757 0.2241-0.12514 0.0902-0.0495 0.14552-0.0815 0.0815-0.0466 0.10769-0.0641 0.0291-0.0175 0.0379-0.0232l0.0378 0.0204q-0.0262 0.0786-0.0669 0.13097-0.0407 0.0495-0.10769 0.0873l-0.44529 0.24448q-0.0611 0.032-0.10186 0.0611-0.0437 0.0262-0.067 0.0524z" direction="rtl" fill="#800000" stroke-width=".999997" style="paint-order:fill markers stroke"/>
   <path d="m67.204208 82.277583-0.10089-0.0233q0.0155-0.0737 0.0427-0.27939 0.0272-0.20956 0.0427-0.6015l0.0505-1.11372q0.0116-0.21731 0.0272-0.37641 0.0194-0.15909 0.0543-0.29881 0.0349-0.1397 0.0931-0.28716 0.0621-0.15134 0.15522-0.34537l0.097 0.031q-0.0272 0.0893-0.0582 0.28716-0.0311 0.19402-0.0505 0.56655l-0.0621 1.15253q-0.0155 0.33373-0.0931 0.66745-0.0737 0.33373-0.19791 0.62089z" direction="rtl" fill="#000000" style="paint-order:fill markers stroke"/>
  </g>
  <g transform="matrix(.75 0 0 .75 -51.878663 -4.56659)" fill="#800000" stroke-linecap="square" stroke-width="1.33333">
   <path d="m156.34221 113.35529q-0.0854 0-0.14358-0.0582-0.0543-0.0582-0.0543-0.15522 0-0.0892 0.0388-0.19015l0.0893-0.0155 4e-3 0.0466q8e-3 0.0582 0.0349 0.0893 0.031 0.0272 0.0854 0.0272 0.10089 0 0.15522-0.0815 0.0582-0.0815 0.0931-0.24059l0.0892-0.0194q0.0349 0.0776 0.12418 0.0776 0.0892 0 0.1397-0.0737 0.0504-0.0776 0.066-0.22119l0.10477-0.0194v0.066q0 0.12806-0.0427 0.24447-0.0427 0.11642-0.12805 0.19403-0.0815 0.0737-0.20955 0.0737-0.0815 0-0.12806-0.0388-0.0349 0.11253-0.11642 0.20567-0.0776 0.0892-0.20179 0.0892z" direction="rtl" style="paint-order:fill markers stroke"/>
   <path d="m156.65266 112.65291-0.066-0.0116q0.0155-0.0699 0.0233-0.19791 8e-3 -0.12806 0.0233-0.39582 8e-3 -0.11254 0.0194-0.18239 0.0155-0.0737 0.0466-0.14358 0.031-0.0699 0.0854-0.17462l0.066 0.0116q-0.0155 0.0349-0.0233 0.12418-8e-3 0.0854-0.0155 0.30268l-4e-3 0.0776q-8e-3 0.1397-0.0505 0.29105-0.0388 0.14746-0.10477 0.2988z" direction="rtl" style="paint-order:fill markers stroke"/>
  </g>
  <g stroke-linecap="square">
   <path d="m63.626328 82.273713-0.0699-0.0815q0.17075-0.18239 0.32985-0.36477 0.16299-0.18627 0.31045-0.36089 0.14746-0.17851 0.2794-0.34538 0.13194-0.17074 0.24447-0.32209l0.0854 0.0233q-4e-3 0.031-8e-3 0.0582 0 0.0233 0 0.0621 0 0.17462 0.097 0.25224 0.097 0.0776 0.24059 0.0776 0.19403 0 0.31433-0.14358 0.12418-0.14358 0.19791-0.43462l0.10865 0.0116q0 0.0116-4e-3 0.0272 0 0.0116 0 0.0311 0 0.20178 0.0854 0.29103 0.0854 0.0893 0.2406 0.0893 0.13194 0 0.23283-0.0815 0.1009-0.0854 0.10478-0.29493 0-0.0543 0-0.11254 4e-3 -0.0582 4e-3 -0.11254 4e-3 -0.16298 0.0505-0.35313 0.0504-0.19014 0.17462-0.40358l0.0931 0.0311q-0.0233 0.10088-0.0427 0.31044-0.0155 0.20954-0.031 0.52776-8e-3 0.20954-0.0388 0.39194-0.031 0.17849-0.0854 0.32595-0.0505 0.14359-0.12806 0.25612-0.0737 0.11254-0.15911 0.19015-0.0854 0.0737-0.1785 0.11254-0.0892 0.0349-0.19015 0.0349-0.0854 0-0.19403-0.0349-0.10865-0.0349-0.18626-0.13195-0.0543 0.0931-0.1397 0.15911-0.0815 0.066-0.18627 0.1009-0.1009 0.0349-0.21343 0.0349-0.1591 0-0.27552-0.0504-0.11642-0.0505-0.19015-0.1397-0.0699-0.0931-0.097-0.20956-0.21343 0.19016-0.77612 0.57821z" direction="rtl" fill="#000000" style="paint-order:fill markers stroke"/>
   <path d="m70.904328 78.563053-0.0349-0.0232q0.0145-0.0553 0.0407-0.096 0.0232-0.0436 0.0786-0.0844 0.0553-0.0436 0.15134-0.099 0.13389-0.0757 0.22411-0.12515 0.0902-0.0495 0.14552-0.0815 0.0815-0.0466 0.10768-0.0641 0.0291-0.0175 0.0378-0.0232l0.0379 0.0204q-0.0262 0.0786-0.0669 0.13097-0.0407 0.0495-0.10768 0.0873l-0.4453 0.24448q-0.0611 0.032-0.10187 0.0611-0.0437 0.0262-0.067 0.0524z" direction="rtl" fill="#800000" stroke-width=".999997" style="paint-order:fill markers stroke"/>
   <path d="m70.444478 82.297003q-0.0737 0-0.12417-0.0893-0.0504-0.0931-0.0504-0.30269 0-0.10477 0.0194-0.1785 0.0155-0.0776 0.0466-0.13194 0.031-0.0543 0.0621-0.0854 0.031-0.17075 0.0776-0.3221 0.0466-0.15521 0.10865-0.2988 0.066-0.14357 0.1397-0.27163 0.11254-0.19403 0.26776-0.29105 0.15911-0.097 0.36089-0.097 0.1203 0 0.2406 0.0349 0.35701 0.10477 0.54328 0.1591 0.18626 0.0504 0.21343 0.0582l0.0155 0.10477q-0.0194 0.031-0.0504 0.0776-0.0272 0.0427-0.0815 0.1203-0.0505 0.0776-0.14746 0.21731-0.31821 0.46955-0.58208 0.75671-0.26388 0.28327-0.51612 0.41134-0.25223 0.12806-0.54328 0.12806zm0.16687-0.88477h0.066q0.22895 0 0.45014-0.0388 0.22507-0.0427 0.41134-0.12807 0.18627-0.0854 0.30268-0.22119-0.0582-0.0194-0.11641-0.0349-0.0582-0.0194-0.11642-0.0349-0.0892-0.0272-0.20955-0.0543-0.11642-0.031-0.21731-0.031t-0.19015 0.031q-0.0854 0.0272-0.15134 0.0815-0.066 0.0543-0.12418 0.16298-0.0582 0.10866-0.10477 0.26776zm-1.31163 1.47849q-0.0776-0.0349-0.15523-0.0699-0.0815-0.031-0.1591-0.066-0.0776-0.031-0.1591-0.0621l0.0194-0.0737q0.17075-0.0155 0.31821-0.0543 0.14358-0.0427 0.25611-0.10089 0.11254-0.0582 0.18239-0.12418 0.0892-0.0854 0.13194-0.15522 0.0388-0.0737 0.0543-0.17851 0.0155-0.10477 0.0233-0.28716l0.066-1.34267q0.0116-0.22895 0.0272-0.39194 0.0155-0.16686 0.0427-0.30656t0.0737-0.27552q0.0466-0.1397 0.11642-0.31433l0.097 0.031q-0.0272 0.11641-0.0505 0.30268-0.0194 0.18239-0.0349 0.39582-0.0116 0.21343-0.0194 0.4191-8e-3 0.20567-8e-3 0.36865 0 0.31821 0.066 0.49671 0.066 0.17463 0.18238 0.24448 0.11642 0.066 0.26388 0.066 0.0931 0 0.13194 0.10089 0.0388 0.1009 0.0388 0.2794 0 0.15135-0.0427 0.26388-0.0388 0.11254-0.1203 0.17851-0.0776 0.0621-0.19791 0.0621-0.17462 0-0.2988-0.0621-0.1203-0.066-0.19015-0.19403-0.0737 0.2794-0.1785 0.45014-0.10478 0.17075-0.21343 0.26-0.0854 0.0698-0.13971 0.10478-0.0582 0.0349-0.12417 0.0349zm-0.33373-0.23672-0.1009-0.0233q0.0155-0.0737 0.0427-0.27939 0.0272-0.20956 0.0427-0.60149l0.0504-1.11372q0.0116-0.22896 0.0272-0.38806 0.0194-0.16298 0.0543-0.29491 0.0349-0.13582 0.0931-0.27941 0.0621-0.14745 0.15522-0.34537l0.097 0.031q-0.0272 0.0893-0.0582 0.28716-0.031 0.19403-0.0504 0.56658l-0.0621 1.15251q-0.0155 0.33373-0.0931 0.66746-0.0737 0.33374-0.1979 0.6209z" direction="rtl" fill="#000000" style="paint-order:fill markers stroke"/>
   <path d="m74.142638 82.669523q-0.0815 0-0.12805-0.0931-0.0466-0.0931-0.0466-0.29881 0-0.21731 0.0931-0.35313 0.0893-0.1397 0.27164-0.1397 0.0427 0 0.066-0.0116l0.15134-0.31821q0.0272-0.0155 0.066-0.0155 0.0854 0 0.13582 0.0621 0.0505 0.0621 0.0737 0.1591 0.0233 0.0931 0.0233 0.19403 0 0.21342-0.097 0.39969-0.0931 0.18627-0.25223 0.30268-0.15911 0.11254-0.35702 0.11254zm0 0q-0.28327 0-0.43073-0.23283t-0.14746-0.69074q0-0.10478 4e-3 -0.23283 4e-3 -0.13195 8e-3 -0.29105 8e-3 -0.15909 0.0194-0.34537 0.0116-0.18626 0.0233-0.3997 0.0272-0.42686 0.0931-0.76446 0.0699-0.34149 0.18239-0.59373l0.10088 0.0272q-0.0233 0.11254-0.0466 0.28716-0.0194 0.17075-0.0388 0.37642-0.0194 0.20179-0.0349 0.41134-0.0116 0.20955-0.0194 0.39581-8e-3 0.18627-8e-3 0.32209 0 0.20179 0.0272 0.35701t0.0776 0.26776q0.0543 0.10866 0.14747 0.16686 0.097 0.0543 0.23283 0.0543 0.0931 0 0.13194 0.1009 0.0388 0.10089 0.0388 0.28716 0 0.1785-0.0504 0.29104-0.0504 0.10866-0.13582 0.1591-0.0815 0.0466-0.17463 0.0466z" direction="rtl" fill="#000000" style="paint-order:fill markers stroke"/>
  </g>
  <path d="m70.790838 79.313473c-0.0139 0.018-0.0124 0.0292-6e-3 0.0485 8e-3 0.0221 0.0188 0.0568 0.0528 0.12448 0.0372 0.0738 0.0897 0.16154 0.16118 0.22177 0.0685 0.0577 0.15609 0.10514 0.23974 0.12973 0.0418 0.0123 0.0825 0.018 0.12061 0.0165 0.038-2e-3 0.0773-0.0114 0.10462-0.0401 0.19478-0.19783 0.3416-0.3494 0.51035-0.52149 0.0228-0.026 8e-3 -0.0671-0.0256-0.0732 0 0-0.19233-0.037-0.32739-0.14677-0.0658-0.0536-0.11757-0.13815-0.14191-0.18598-0.0244-0.0478-0.03-0.0672-0.0349-0.10655-5e-3 -0.0392-0.0533-0.0607-0.0677-0.0456l-8e-5 1e-4c-0.0174 0.0172-0.0201 0.0182-0.0276 0.0251-0.0152 0.0147-0.034 0.0322-0.0611 0.0586-0.0541 0.0528-0.12787 0.1254-0.20144 0.19751-0.0914 0.0835-0.26785 0.26597-0.28907 0.28914-3e-3 3e-3 -5e-3 6e-3 -7e-3 8e-3z" color="#000000" fill="#000080" style="-inkscape-stroke:none;paint-order:fill markers stroke"/>
  <path d="m61.562708 83.584253c-0.0139 0.018-0.0124 0.0292-6e-3 0.0485 7e-3 0.0221 0.0188 0.0568 0.0528 0.12448 0.0372 0.0738 0.0897 0.16154 0.16118 0.22177 0.0685 0.0577 0.15608 0.10514 0.23974 0.12973 0.0418 0.0123 0.0825 0.018 0.12061 0.0165 0.038-2e-3 0.0773-0.0114 0.10462-0.0401 0.19478-0.19783 0.3416-0.3494 0.51035-0.52149 0.0228-0.026 8e-3 -0.0671-0.0256-0.0732 0 0-0.19233-0.037-0.32739-0.14677-0.0657-0.0536-0.11757-0.13815-0.14191-0.18598-0.0244-0.0478-0.03-0.0672-0.0349-0.10655-5e-3 -0.0392-0.0533-0.0607-0.0677-0.0456l-8e-5 1e-4c-0.0174 0.0172-0.0201 0.0182-0.0276 0.0251-0.0152 0.0147-0.034 0.0322-0.0611 0.0586-0.0541 0.0528-0.12788 0.1254-0.20145 0.19751-0.0914 0.0835-0.26784 0.26597-0.28906 0.28914-3e-3 3e-3 -5e-3 6e-3 -7e-3 8e-3z" color="#000000" fill="#000080" style="-inkscape-stroke:none;paint-order:fill markers stroke"/>
 </g>
</svg>
